<?xml version="1.0" encoding="UTF-8" standalone="no"?>
<!-- Created with Inkscape (http://www.inkscape.org/) -->

<svg
   xmlns:dc="http://purl.org/dc/elements/1.1/"
   xmlns:cc="http://creativecommons.org/ns#"
   xmlns:rdf="http://www.w3.org/1999/02/22-rdf-syntax-ns#"
   xmlns:svg="http://www.w3.org/2000/svg"
   xmlns="http://www.w3.org/2000/svg"
   xmlns:sodipodi="http://sodipodi.sourceforge.net/DTD/sodipodi-0.dtd"
   xmlns:inkscape="http://www.inkscape.org/namespaces/inkscape"
   version="1.1"
   id="svg3713"
   xml:space="preserve"
   width="480"
   height="278.14401"
   viewBox="0 0 480 278.14401"
   sodipodi:docname="logo_white.svg"
   inkscape:version="0.92.4 (5da689c313, 2019-01-14)"
   inkscape:export-filename="C:\Users\jerem\OneDrive\Desktop\path3761.png"
   inkscape:export-xdpi="20.018406"
   inkscape:export-ydpi="20.018406"><metadata
     id="metadata3719"><rdf:RDF><cc:Work
         rdf:about=""><dc:format>image/svg+xml</dc:format><dc:type
           rdf:resource="http://purl.org/dc/dcmitype/StillImage" /><dc:title></dc:title></cc:Work></rdf:RDF></metadata><defs
     id="defs3717"><clipPath
       clipPathUnits="userSpaceOnUse"
       id="clipPath3729"><path
         d="M 0,208.608 H 360 V 0 H 0 Z"
         id="path3727"
         inkscape:connector-curvature="0" /></clipPath></defs><sodipodi:namedview
     pagecolor="#ffffff"
     bordercolor="#666666"
     borderopacity="1"
     objecttolerance="10"
     gridtolerance="10"
     guidetolerance="10"
     inkscape:pageopacity="0"
     inkscape:pageshadow="2"
     inkscape:window-width="1920"
     inkscape:window-height="970"
     id="namedview3715"
     showgrid="false"
     inkscape:zoom="2.5885871"
     inkscape:cx="230.97397"
     inkscape:cy="139.07201"
     inkscape:window-x="-12"
     inkscape:window-y="-12"
     inkscape:window-maximized="1"
     inkscape:current-layer="g3721" /><g
     id="g3721"
     inkscape:groupmode="layer"
     inkscape:label="mansard_brand"
     transform="matrix(1.3333333,0,0,-1.3333333,0,278.144)"><g
       id="g3723"><g
         id="g3725"
         clip-path="url(#clipPath3729)"><g
           id="g3731"
           transform="translate(301.2085,157.7299)"><path
             d="m 0,0 c -0.707,4.196 -2.342,3.864 -4.129,3.863 -37.637,-0.015 -68.4,-0.017 -103.376,-0.009 -0.39,0.026 -0.796,0.009 -1.213,0.009 -4.316,-0.002 -8.541,-0.003 -12.694,-0.005 -3.976,0.002 -8.015,0.003 -12.142,0.005 -0.48,0 -0.964,0.027 -1.428,-0.009 -34.887,-0.008 -65.601,-0.005 -103.161,0.009 -1.791,10e-4 -3.628,0.405 -4.315,-3.64 -4.27,-19.389 -12.653,-54.396 -16.459,-69.563 -0.876,-3.283 1.595,-6.497 4.993,-6.493 8.689,0.012 23.708,0.014 32.445,-0.081 2.205,-0.024 3.681,2.139 5.305,4.035 12.203,14.24 24.498,28.247 36.54,42.902 4.18,5.087 7.405,5.487 11.715,0.199 5.832,-7.156 11.738,-14.121 17.669,-21.025 6.285,-7.317 12.597,-14.565 18.877,-21.892 1.469,-1.713 2.793,-3.777 4.656,-4.149 0.199,-0.039 0.402,-0.066 0.614,-0.064 1.7,0.013 7.842,0.01 9.212,-0.006 0.207,-0.002 0.406,0.021 0.6,0.055 1.881,0.331 3.234,2.262 4.706,3.98 6.418,7.489 12.86,14.917 19.279,22.405 5.786,6.75 11.552,13.55 17.261,20.497 4.18,5.087 7.405,5.487 11.714,0.199 12.013,-14.741 24.34,-28.675 36.547,-42.917 1.625,-1.896 3.073,-4.23 5.27,-4.213 8.907,0.067 24.219,0.065 33.022,0.057 3.403,-0.003 5.874,3.22 4.989,6.505 C 12.826,-54.842 4.328,-18.971 0,0"
             style="fill:#ffffff;fill-opacity:1;fill-rule:nonzero;stroke:none"
             id="path3733"
             inkscape:connector-curvature="0" /></g><g
           id="g3735"
           transform="translate(75.3218,36.8265)"><path
             d="M 0,0 -0.042,21.211 -10.564,3.535 h -1.913 L -22.999,21.086 V 0 h -3.993 v 29.112 h 3.41 L -11.437,8.651 0.54,29.112 H 3.951 L 3.992,0 Z"
             style="fill:#ffffff;fill-opacity:1;fill-rule:nonzero;stroke:none"
             id="path3737"
             inkscape:connector-curvature="0" /></g><g
           id="g3739"
           transform="translate(112.6265,47.4315)"><path
             d="M 0,0 -6.28,14.266 -12.561,0 Z m 1.456,-3.327 h -15.472 l -3.202,-7.278 h -4.284 l 13.184,29.112 h 4.117 L 9.025,-10.605 H 4.658 Z"
             style="fill:#ffffff;fill-opacity:1;fill-rule:nonzero;stroke:none"
             id="path3741"
             inkscape:connector-curvature="0" /></g><g
           id="g3743"
           transform="translate(158.499,65.9388)"><path
             d="m 0,0 v -29.112 h -3.41 l -17.467,21.71 v -21.71 h -4.16 V 0 h 3.411 L -4.159,-21.71 V 0 Z"
             style="fill:#ffffff;fill-opacity:1;fill-rule:nonzero;stroke:none"
             id="path3745"
             inkscape:connector-curvature="0" /></g><g
           id="g3747"
           transform="translate(176.8604,37.5126)"><path
             d="m 0,0 c -2.038,0.68 -3.639,1.56 -4.804,2.641 l 1.539,3.245 C -2.157,4.887 -0.735,4.076 0.998,3.452 2.73,2.828 4.512,2.517 6.342,2.517 c 2.412,0 4.215,0.409 5.407,1.226 1.191,0.818 1.788,1.906 1.788,3.265 0,0.998 -0.326,1.809 -0.977,2.433 -0.652,0.624 -1.456,1.102 -2.412,1.435 -0.957,0.333 -2.309,0.707 -4.055,1.123 -2.191,0.526 -3.958,1.053 -5.303,1.58 -1.345,0.526 -2.495,1.338 -3.452,2.433 -0.956,1.095 -1.435,2.571 -1.435,4.43 0,1.552 0.409,2.953 1.227,4.2 0.818,1.247 2.059,2.246 3.723,2.994 1.663,0.749 3.728,1.123 6.196,1.123 1.719,0 3.41,-0.222 5.074,-0.665 1.664,-0.444 3.091,-1.082 4.284,-1.914 l -1.373,-3.326 c -1.22,0.775 -2.523,1.365 -3.909,1.767 -1.387,0.402 -2.745,0.603 -4.076,0.603 -2.357,0 -4.124,-0.43 -5.302,-1.289 -1.179,-0.86 -1.768,-1.969 -1.768,-3.328 0,-0.997 0.333,-1.808 0.998,-2.432 0.666,-0.624 1.49,-1.11 2.475,-1.456 0.984,-0.347 2.322,-0.714 4.013,-1.102 2.19,-0.527 3.951,-1.054 5.282,-1.58 1.331,-0.527 2.474,-1.331 3.431,-2.413 0.957,-1.081 1.435,-2.536 1.435,-4.367 0,-1.525 -0.416,-2.918 -1.248,-4.179 C 15.534,1.816 14.271,0.817 12.581,0.084 10.889,-0.652 8.81,-1.019 6.342,-1.019 4.152,-1.019 2.038,-0.68 0,0"
             style="fill:#ffffff;fill-opacity:1;fill-rule:nonzero;stroke:none"
             id="path3749"
             inkscape:connector-curvature="0" /></g><g
           id="g3751"
           transform="translate(225.1245,47.4315)"><path
             d="M 0,0 -6.28,14.266 -12.56,0 Z m 1.456,-3.327 h -15.472 l -3.202,-7.278 h -4.283 l 13.183,29.112 h 4.117 L 9.025,-10.605 H 4.658 Z"
             style="fill:#ffffff;fill-opacity:1;fill-rule:nonzero;stroke:none"
             id="path3753"
             inkscape:connector-curvature="0" /></g><g
           id="g3755"
           transform="translate(263.2192,50.9252)"><path
             d="m 0,0 c 1.386,1.137 2.08,2.759 2.08,4.866 0,2.107 -0.694,3.722 -2.08,4.845 -1.386,1.123 -3.396,1.685 -6.03,1.685 h -7.071 V -1.705 h 7.071 c 2.634,0 4.644,0.568 6.03,1.705 m 2.205,-14.099 -6.281,8.942 C -4.852,-5.212 -5.462,-5.24 -5.905,-5.24 h -7.196 v -8.859 h -4.158 v 29.113 h 11.354 c 3.77,0 6.737,-0.902 8.9,-2.703 2.162,-1.803 3.244,-4.284 3.244,-7.445 0,-2.246 -0.555,-4.158 -1.664,-5.74 -1.11,-1.58 -2.69,-2.73 -4.741,-3.451 l 6.904,-9.774 z"
             style="fill:#ffffff;fill-opacity:1;fill-rule:nonzero;stroke:none"
             id="path3757"
             inkscape:connector-curvature="0" /></g><g
           id="g3759"
           transform="translate(295.6992,40.4447)"><path
             d="m 0,0 c 2.357,0 4.43,0.458 6.218,1.373 1.789,0.915 3.168,2.197 4.138,3.846 0.97,1.65 1.456,3.557 1.456,5.719 0,2.162 -0.486,4.069 -1.456,5.719 -0.97,1.649 -2.349,2.932 -4.138,3.847 C 4.43,21.418 2.357,21.876 0,21.876 H -7.86 V 0 Z M -12.019,25.494 H 0.25 c 3.078,0 5.808,-0.61 8.193,-1.829 2.385,-1.221 4.235,-2.932 5.552,-5.137 1.317,-2.204 1.976,-4.735 1.976,-7.59 0,-2.856 -0.659,-5.385 -1.976,-7.59 C 12.678,1.144 10.828,-0.568 8.443,-1.789 6.058,-3.009 3.328,-3.618 0.25,-3.618 h -12.269 z"
             style="fill:#ffffff;fill-opacity:1;fill-rule:nonzero;stroke:none"
             id="path3761"
             inkscape:connector-curvature="0" /></g></g></g></g></svg>