<?xml version="1.0" encoding="UTF-8" standalone="no"?>
<!-- Created with Inkscape (http://www.inkscape.org/) -->

<svg
   xmlns:dc="http://purl.org/dc/elements/1.1/"
   xmlns:cc="http://creativecommons.org/ns#"
   xmlns:rdf="http://www.w3.org/1999/02/22-rdf-syntax-ns#"
   xmlns:svg="http://www.w3.org/2000/svg"
   xmlns="http://www.w3.org/2000/svg"
   xmlns:sodipodi="http://sodipodi.sourceforge.net/DTD/sodipodi-0.dtd"
   xmlns:inkscape="http://www.inkscape.org/namespaces/inkscape"
   width="209.35045mm"
   height="70.24102mm"
   viewBox="0 0 209.35045 70.24102"
   version="1.1"
   id="svg835"
   inkscape:version="0.92.4 (5da689c313, 2019-01-14)"
   sodipodi:docname="ramco_logo_slate.svg">
  <defs
     id="defs829" />
  <sodipodi:namedview
     id="base"
     pagecolor="#ffffff"
     bordercolor="#ff6666"
     borderopacity="1"
     inkscape:pageopacity="0.0"
     inkscape:pageshadow="2"
     inkscape:zoom="0.35"
     inkscape:cx="-68.091371"
     inkscape:cy="132.73894"
     inkscape:document-units="mm"
     inkscape:current-layer="layer1"
     showgrid="false"
     fit-margin-top="0"
     fit-margin-left="0"
     fit-margin-right="0"
     fit-margin-bottom="0"
     inkscape:pagecheckerboard="true"
     borderlayer="false"
     inkscape:window-width="2560"
     inkscape:window-height="1017"
     inkscape:window-x="-8"
     inkscape:window-y="-8"
     inkscape:window-maximized="1" />
  <metadata
     id="metadata832">
    <rdf:RDF>
      <cc:Work
         rdf:about="">
        <dc:format>image/svg+xml</dc:format>
        <dc:type
           rdf:resource="http://purl.org/dc/dcmitype/StillImage" />
        <dc:title></dc:title>
      </cc:Work>
    </rdf:RDF>
  </metadata>
  <g
     inkscape:label="Layer 1"
     inkscape:groupmode="layer"
     id="layer1"
     transform="translate(-1.0069133,-113.71283)">
    <g
       id="g1572"
       style="fill:#365166;stroke:#365166;stroke-width:0.20259789;stroke-opacity:1"
       transform="matrix(1.3070793,0,0,1.3048279,1.0661914,113.67771)">
      <path
         inkscape:connector-curvature="0"
         id="path1534"
         d="m 117.82072,53.327083 c -1.13931,-0.632218 -1.9764,-2.142263 -1.97741,-3.567085 -0.002,-2.601648 2.14568,-4.486761 4.85657,-4.26311 1.2192,0.100586 1.27429,0.05903 2.24938,-1.696941 l 0.99957,-1.800054 -2.13073,-1.993187 c -2.42702,-2.270352 -3.8063,-4.752653 -4.40446,-7.926707 l -0.37691,-2 h -2.18603 -2.18603 l -0.36473,1.3545 c -0.68099,2.528994 -3.64393,4.721932 -6.37994,4.721932 -3.47828,0 -6.72,-3.210992 -6.72,-6.65631 0,-3.437354 3.31313,-6.780122 6.72,-6.780122 2.62015,0 5.73511,2.304107 6.38105,4.72 l 0.36362,1.36 h 2.22766 c 1.22522,0 2.23017,-0.108 2.23323,-0.24 0.003,-0.132 0.20834,-1.196733 0.45618,-2.366074 0.54372,-2.565223 1.41681,-4.351995 2.96267,-6.063084 l 1.15669,-1.280319 -1.18763,-1.216245 c -1.13019,-1.157418 -1.24547,-1.200806 -2.38345,-0.897061 -4.74967,1.267759 -8.17618,-4.515059 -4.72202,-7.9692163 2.33261,-2.3326067 6.51545,-1.6011152 7.75078,1.3554503 0.61737,1.477577 0.54986,2.968134 -0.20114,4.441189 l -0.64237,1.259963 1.12202,1.122023 c 1.12103,1.121025 1.12281,1.121515 2.00237,0.550243 1.71937,-1.116728 3.25654,-1.65515 6.56034,-2.297867 l 0.88,-0.171195 V 10.944059 6.8603117 l -0.9656,-0.3644719 c -0.65242,-0.2462608 -1.1325,-0.7620061 -1.4802,-1.5901561 -1.14365,-2.7239099 1.24884,-5.46148022 4.04174,-4.62470803 3.00504,0.90033163 3.27241,4.93441773 0.41685,6.28946733 l -1.13774,0.5398975 0.15702,3.8127115 c 0.0864,2.096991 0.23512,3.890802 0.33056,3.986245 0.0954,0.09544 1.10677,0.368793 2.2474,0.607443 1.14062,0.238649 2.81078,0.807335 3.71146,1.263746 l 1.63761,0.829838 1.06929,-1.666342 1.06929,-1.666342 -0.74884,-1.103475 c -0.93975,-1.384796 -0.98507,-3.3427967 -0.11057,-4.7770901 2.42968,-3.9849855 8.32448,-2.4258703 8.32053,2.2006951 -0.002,2.815354 -1.93964,4.55651 -4.89511,4.399645 l -1.64193,-0.08715 -1.03597,1.725248 -1.03598,1.725248 1.29245,1.402142 c 1.60456,1.740747 3.06161,4.797445 3.39252,7.117092 l 0.25107,1.76 1.48806,0.09635 c 1.43484,0.0929 1.49591,0.06058 1.70772,-0.903769 0.28154,-1.281849 1.93275,-3.164394 3.26309,-3.720245 2.37021,-0.990335 5.54412,-0.04722 6.987,2.076166 0.64144,0.943965 0.78828,1.55456 0.78828,3.277771 0,1.828622 -0.1266,2.292463 -0.92739,3.397921 -1.49914,2.069507 -4.47247,2.895987 -6.84789,1.903475 -1.33034,-0.555853 -2.98155,-2.438397 -3.26309,-3.720246 -0.21187,-0.964648 -0.27254,-0.9967 -1.71065,-0.903769 -1.45147,0.0938 -1.49347,0.126026 -1.58501,1.216348 -0.16874,2.010067 -1.32201,4.925366 -2.63169,6.652515 -1.39449,1.839024 -1.38547,2.139917 0.10598,3.534748 0.73552,0.687869 0.85868,0.709444 1.54939,0.271412 3.77835,-2.396125 8.82815,1.413059 7.65398,5.773583 -0.43638,1.620583 -2.3647,3.435412 -3.9703,3.736624 -1.77306,0.332627 -3.50804,-0.281948 -4.78444,-1.694771 -1.42402,-1.576221 -1.73393,-3.188915 -1.01801,-5.297593 l 0.52592,-1.549056 -1.12324,-1.123235 -1.12324,-1.123239 -1.54516,0.979309 c -3.18297,2.017334 -7.08064,2.699958 -10.82516,1.895885 -1.232,-0.264551 -2.47596,-0.574669 -2.76435,-0.689146 -0.39448,-0.156595 -0.81284,0.266778 -1.68923,1.709479 l -1.1649,1.917625 0.64804,1.062931 c 1.17724,1.930915 0.66784,4.668906 -1.08194,5.815408 -0.96086,0.629581 -3.54712,0.682691 -4.6069,0.09461 z m 17.46322,-15.854547 c 2.94639,-1.518579 4.53989,-4.334275 4.54591,-8.032537 0.009,-5.284332 -3.26867,-8.725529 -8.30985,-8.725529 -5.05322,0 -8.3942,3.548651 -8.37323,8.893708 0.0166,4.242333 2.42011,7.492915 6.29323,8.511309 1.4547,0.382496 4.50086,0.04527 5.84394,-0.646951 z M 0.15127124,43.452533 C 0.06422679,43.22564 0.03058167,36.775999 0.0765043,29.119999 L 0.16,15.199999 h 7.68 c 8.338843,0 9.991852,0.2627 12.207242,1.940003 2.223726,1.683613 3.131137,5.851184 2.069638,9.50547 -0.488228,1.680761 -2.48839,3.95479 -3.759003,4.273693 C 17.941045,31.023783 17.6,31.220254 17.6,31.355766 c 0,0.135512 1.511508,2.8919 3.358906,6.125308 1.847398,3.233408 3.359398,5.991961 3.36,6.130118 6.08e-4,0.138157 -1.459629,0.210157 -3.244957,0.16 l -3.246051,-0.09119 -3.387949,-5.839999 -3.387949,-5.84 H 8.5732189 6.0944374 l -0.087219,5.84 L 5.92,43.679998 3.1147669,43.772533 c -2.0635422,0.06807 -2.84707694,-0.01654 -2.96349566,-0.32 z M 16.508472,25.502155 C 17.40088,24.463639 17.522341,22.888393 16.790565,21.843638 16.073454,20.819817 14.397912,20.483786 10,20.481784 l -3.92,-0.0018 v 3.063055 3.063054 l 4.828472,-0.103055 4.828473,-0.103054 z m 9.425479,18.109431 c 0.0077,-0.138372 2.563672,-6.587587 5.68,-14.331587 l 5.666049,-14.08 h 2.88 2.88 l 5.666048,14.08 c 3.11633,7.744 5.67233,14.187999 5.68,14.319999 0.0077,0.132 -1.341322,0.24 -2.99777,0.24 h -3.011721 l -0.878835,-2.24 -0.878832,-2.239999 h -6.431924 -6.431923 l -0.833433,2.159999 -0.833431,2.16 -3.08409,0.09159 c -1.696249,0.05037 -3.077811,-0.02163 -3.070138,-0.16 z M 43.87888,32.079999 c -0.325482,-0.836 -1.215661,-3.14 -1.978176,-5.12 -0.762518,-1.98 -1.466115,-3.59933 -1.563549,-3.598512 -0.132617,0.0011 -2.659721,6.103255 -4.123821,9.957696 -0.05867,0.154448 1.775232,0.280816 4.075328,0.280816 h 4.182 z m 14.827581,11.359999 c -0.0844,-0.22 -0.115879,-6.663999 -0.06996,-14.319999 l 0.08349,-13.92 h 0.945632 c 0.823891,0 1.60121,0.741558 6.03777,5.76 2.800675,3.168 5.564988,6.309388 6.142921,6.980861 l 1.050784,1.220861 6.136215,-6.980861 c 5.571273,-6.338154 6.229686,-6.980861 7.151446,-6.980861 H 87.2 v 14.24 14.239999 h -2.88 -2.88 l -0.16,-8.061023 -0.16,-8.061027 -3.983178,4.461027 c -2.190748,2.453561 -4.086396,4.461024 -4.21255,4.461024 -0.126154,0 -2.077725,-2.042266 -4.336822,-4.538369 L 64.48,27.403262 l -0.0854,8.218369 -0.0854,8.218367 h -2.724643 c -1.884538,0 -2.771956,-0.123334 -2.878093,-0.4 z m 43.822119,-0.07543 C 98.218701,42.426904 94.573094,39.54773 92.706755,35.607624 91.72145,33.527503 91.68,33.278527 91.68,29.439999 c 0,-3.838527 0.04145,-4.087503 1.026755,-6.167625 3.68248,-7.77423 13.502645,-10.461773 21.373185,-5.849327 2.22722,1.305237 2.23131,1.384375 0.18951,3.665514 l -1.83363,2.048563 -2.09285,-1.030311 c -1.79684,-0.884578 -2.44049,-1.031674 -4.55052,-1.03995 -5.26647,-0.02066 -8.461343,3.081926 -8.498405,8.252903 -0.02573,3.590159 1.442105,6.232914 4.234835,7.624591 1.3514,0.673434 2.09115,0.815642 4.24284,0.815642 2.28701,0 2.85485,-0.12432 4.63822,-1.015482 l 2.03215,-1.015482 1.84019,2.051021 c 1.72141,1.918637 1.80676,2.087962 1.32224,2.62335 -0.84799,0.937015 -4.24624,2.447335 -6.64452,2.953098 -2.68708,0.566662 -3.85711,0.568131 -6.43142,0.0081 z"
         style="fill:#365166;fill-opacity:1;stroke:#365166;stroke-width:0.20259789;stroke-opacity:1" />
      <path
         sodipodi:nodetypes="cccccccccccscscccccscccscccccsccsscscsccccccccccsccccscscsssccscccsccccssccccsccccscccsscsccccsscscscccccccccccccsscccsccccccccccccccccccscsssccsscsscccccsscscscscccccsscscccscssccccccc"
         inkscape:connector-curvature="0"
         id="path1532"
         d="m 117.63676,53.091742 c -2.6112,-2.053968 -2.26397,-5.776409 0.65944,-7.069574 0.93576,-0.41393 1.72731,-0.546726 2.45032,-0.411088 1.03468,0.194105 1.10528,0.137843 2.26057,-1.801552 1.10367,-1.852746 1.14959,-2.025942 0.61628,-2.324403 -2.69223,-1.506646 -5.63153,-6.071824 -6.10701,-9.485126 l -0.24518,-1.76 h -2.34534 -2.34534 l -0.43368,1.261496 c -0.97437,2.834232 -3.26122,4.480196 -6.2313,4.48499 -6.617376,0.01069 -9.019898,-8.843858 -3.30789,-12.191314 3.86237,-2.263499 8.51877,-0.162382 9.85042,4.444828 0.13534,0.468226 0.54949,0.56 2.52714,0.56 h 2.36527 l 0.18364,-1.779304 c 0.21693,-2.101828 1.63548,-5.29709 3.08418,-6.947073 l 1.0326,-1.176062 -1.06544,-1.294115 c -0.79035,-0.959976 -1.23069,-1.24821 -1.70544,-1.116326 -1.98458,0.551308 -2.73127,0.524517 -4.12015,-0.14783 -1.07066,-0.518294 -1.61094,-1.048016 -2.10061,-2.059556 -0.81171,-1.676766 -0.81903,-2.536812 -0.0363,-4.26096 0.68279,-1.5039461 2.49707,-2.6587733 4.17702,-2.6587733 1.58788,0 3.43146,1.1319417 4.15569,2.5515583 0.81774,1.60289 0.81585,2.89769 -0.007,4.509758 l -0.65087,1.27582 1.01824,1.212848 1.01825,1.212848 2.43263,-1.239208 c 1.62324,-0.826898 3.04483,-1.301419 4.27263,-1.426186 L 130.88,15.270462 v -4.275231 c 0,-3.3161052 -0.0942,-4.2752312 -0.42013,-4.2752312 -0.23107,0 -0.82671,-0.4243754 -1.32364,-0.9430567 -2.03878,-2.1280309 -0.55239,-5.54421584 2.4123,-5.54421584 2.87333,0 4.28442,3.50355294 2.23608,5.55188784 -0.51446,0.5144615 -1.16664,0.9353847 -1.44928,0.9353847 -0.4505,0 -0.50289,0.5229817 -0.42462,4.2390742 l 0.0893,4.239074 1.89438,0.23621 c 1.0419,0.129916 2.82741,0.67283 3.96778,1.206475 1.14038,0.533645 2.10561,0.931767 2.14496,0.884715 0.0394,-0.04705 0.50281,-0.785464 1.02992,-1.640917 l 0.95837,-1.555369 -0.79698,-1.425952 c -1.65938,-2.9689606 0.004,-6.3005858 3.34938,-6.7088811 3.50021,-0.4271821 6.12615,3.7778862 4.26514,6.8300351 -0.87881,1.4413 -2.30092,2.09565 -4.26642,1.963092 l -1.61592,-0.108982 -1.08244,1.692136 -1.08245,1.692136 1.34013,1.508577 c 1.75114,1.971244 3.10451,4.853985 3.36667,7.171128 l 0.21015,1.857448 h 1.53324 c 1.42176,0 1.54765,-0.06563 1.73149,-0.902656 0.30852,-1.404665 1.94589,-3.14838 3.52134,-3.75005 1.96102,-0.74892 3.99682,-0.421386 5.48111,0.88184 1.52787,1.341489 2.05015,2.474334 2.05015,4.44686 0,4.243939 -4.01784,6.864694 -7.85324,5.122515 -1.53547,-0.697469 -2.89005,-2.20761 -3.18508,-3.550844 -0.20037,-0.912306 -0.30005,-0.967665 -1.74234,-0.967665 h -1.5298 l -0.18175,1.760951 c -0.20862,2.02133 -1.38173,4.783753 -2.78267,6.552585 -0.53082,0.670208 -0.96512,1.349593 -0.96512,1.50974 0,0.160148 0.48748,0.763664 1.0833,1.341149 1.06291,1.030218 1.10174,1.040429 2.0641,0.542771 1.37649,-0.711808 3.81601,-0.649056 5.09552,0.131075 3.1257,1.905757 3.1257,6.737699 0,8.643456 -1.35821,0.828116 -3.10952,0.865487 -4.58727,0.272812 -0.97567,-0.391308 -1.83209,-1.057263 -2.37738,-1.951615 -0.76153,-1.249007 -0.84755,-3.710006 -0.17512,-5.010329 0.44614,-0.862749 0.41923,-0.938506 -0.73323,-2.063847 l -1.19636,-1.168224 -2.54678,1.283786 c -3.88522,1.958461 -8.64569,2.279161 -12.14269,0.818019 l -1.09424,-0.457203 -1.14083,2.039993 -1.14083,2.039991 0.64471,1.057443 c 1.22226,2.004742 0.63016,4.682377 -1.28565,5.814073 -1.27035,0.750413 -3.54351,0.678669 -4.59049,-0.144883 z m 17.55695,-15.510204 c 5.04245,-2.392803 6.42991,-9.778058 2.64483,-14.078133 -1.88788,-2.144746 -3.41513,-2.829299 -6.31854,-2.832135 -2.76482,-0.0027 -4.26716,0.577227 -6.00982,2.319879 -1.70604,1.706047 -2.43657,3.629348 -2.45018,6.450696 -0.0266,5.513261 3.66484,9.151914 8.96462,8.836483 1.06954,-0.06366 2.49563,-0.377213 3.16909,-0.69679 z M 0.32,29.439999 v -14.08 h 7.6219197 c 8.5658473,0 10.1154413,0.257267 12.1128243,2.010992 1.706833,1.498619 2.329872,3.118493 2.338228,6.079286 0.0043,1.540005 -0.182325,2.944268 -0.48919,3.68 -0.60519,1.45099 -2.147629,3.094259 -3.385794,3.607123 C 18.013095,30.946535 17.6,31.248894 17.6,31.409311 c 0,0.237388 1.563041,3.040025 6.620324,11.870687 0.0756,0.132 -1.347052,0.238173 -3.161439,0.235943 L 17.76,43.511883 14.450245,37.755941 11.14049,31.999999 H 8.4502448 5.76 v 5.76 5.759999 H 3.04 0.32 Z m 15.975448,-3.708446 c 1.329102,-1.118365 1.40412,-3.145374 0.159724,-4.315773 -0.787783,-0.740938 -1.046484,-0.780386 -5.76,-0.878307 L 5.76,20.434948 v 3.062525 3.062526 h 4.775448 c 4.670671,0 4.79705,-0.01818 5.76,-0.828446 z M 31.609426,29.45126 37.244688,15.359999 H 40.16 43.075312 L 48.710573,29.45126 54.345834,43.54252 51.29847,43.45126 48.251107,43.36 l -0.799424,-2 -0.799427,-1.999999 h -6.47567 -6.475674 L 32.917869,41.36 l -0.78304,2 -3.080332,0.09126 -3.080331,0.09126 z M 44.48,33.499192 C 44.48,32.983944 40.356646,23.041818 40.228768,23.248728 40.00351,23.613206 36.16,33.244434 36.16,33.444421 c 0,0.08557 1.872,0.155578 4.16,0.155578 2.288,0 4.16,-0.04536 4.16,-0.100807 z m 14.08,-4.059193 v -14.08 h 1.082429 c 1.009181,0 1.49088,0.465572 7.118361,6.88 3.319764,3.784 6.108672,6.869156 6.197572,6.855903 0.0889,-0.01325 2.830662,-3.073253 6.092803,-6.8 5.162669,-5.897957 6.064467,-6.788895 6.96,-6.876177 L 87.04,15.31945 V 29.419724 43.519998 H 84.32 81.6 l -0.03975,-5.839999 c -0.02186,-3.212 -0.129863,-6.822017 -0.24,-8.022261 l -0.20025,-2.18226 -4,4.496249 c -2.2,2.472937 -4.088058,4.498953 -4.195683,4.502262 -0.107626,0.0033 -1.979626,-1.999545 -4.16,-4.450781 C 66.583942,29.571971 64.692,27.555971 64.56,27.543207 c -0.132,-0.01276 -0.24,3.576792 -0.24,7.976792 v 7.999999 h -2.88 -2.88 z m 42.24,13.425174 c -5.721414,-2.053648 -9.28,-7.201776 -9.28,-13.425174 0,-4.953078 2.181066,-9.185565 6.072598,-11.784229 2.649262,-1.769107 4.565622,-2.297265 8.305482,-2.289021 3.52315,0.0078 6.27449,0.80057 8.79392,2.533983 l 1.50379,1.034636 -1.50867,1.652316 c -0.82976,0.908773 -1.67655,1.837911 -1.88176,2.064751 -0.30076,0.332485 -0.72228,0.22875 -2.17443,-0.535126 C 105.84331,19.598878 100.4098,20.961951 98.173677,25.24239 97.429501,26.666902 97.28,27.350181 97.28,29.326818 c 0,3.689891 1.368051,6.224361 4.09984,7.595427 2.94491,1.478032 6.68678,1.343606 9.61489,-0.345411 1.16297,-0.670832 1.46028,-0.732429 1.78923,-0.370679 0.21697,0.238615 1.07872,1.183076 1.91499,2.098804 l 1.5205,1.664963 -1.74603,1.116915 c -2.7861,1.782249 -5.15368,2.435005 -8.78332,2.421616 -2.28548,-0.0084 -3.60502,-0.18201 -4.8901,-0.64328 z"
         style="fill:#365166;fill-opacity:1;stroke:#365166;stroke-width:0.20259789;stroke-opacity:1" />
      <path
         sodipodi:nodetypes="cccsccccsccsccccscscccscsscccccscsscscscscsccccccccccccsscccsccsccccscssccccccscscscsccsscssssccccscccccccccsscccscssccccccccccccccsccsscccsscsscccccssscscsccccsscssscscccsscccccs"
         inkscape:connector-curvature="0"
         id="path1530"
         d="m 117.82074,53.111796 c -1.29871,-0.791808 -2.10814,-2.572332 -1.83391,-4.034108 0.42091,-2.243674 2.84475,-3.900938 4.88971,-3.343267 0.82962,0.22624 0.95775,0.11391 2.1026,-1.843315 1.12738,-1.927357 1.17582,-2.108487 0.64356,-2.406356 -2.72568,-1.525366 -6.00305,-6.129355 -6.16915,-9.473457 -0.21259,-0.911528 -0.16997,-1.348335 -0.18237,-1.771294 -0.23445,-0.16 -1.51989,-0.03192 -2.61989,-0.03462 -2.07079,0.03462 -2.0303,-1.535709 0.33092,-1.388546 l 2.1502,-0.105314 0.31242,-1.717775 c 0.28129,-2.261256 1.23085,-4.683141 2.81514,-6.514774 l 1.37956,-1.594929 -1.10494,-1.163119 c -0.78561,-0.954323 -1.12368,-1.139713 -1.65459,-1.188628 -1.98458,0.551308 -2.96845,0.513222 -4.35733,-0.159125 C 113.00339,15.637701 112,13.725205 112,12.16 c 0,-1.52563 0.94845,-3.4445619 2.38662,-4.1407657 1.68288,-0.8146701 2.87504,-0.9321914 4.62937,-0.135958 1.04649,0.4749686 1.60835,1.025542 2.08332,2.0720328 0.79353,1.7483619 0.83787,2.8241129 0.0412,4.3863399 -0.352,0.690427 -0.81471,1.231225 -0.80739,1.326011 0.007,0.09479 0.49805,0.72613 1.14277,1.341487 0.45343,0.432779 0.44427,0.42655 1.15205,0.808736 l 1.53748,-0.746035 c 1.71499,-0.832172 2.98378,-1.315604 5.43438,-1.674958 l 1.44,-0.21116 -0.11863,-4.152865 c -0.0763,-2.6715046 -0.24643,-4.2000607 -0.47692,-4.2851733 -0.19706,-0.072769 -0.75568,-0.5296922 -1.24137,-1.0153843 -1.26342,-1.263416 -1.24098,-3.183635 0.0523,-4.4769231 2.06128,-2.06128755 5.46461,-0.65089979 5.46461,2.264616 0,1.0424831 -0.20179,1.5310159 -0.93539,2.2646152 -0.51446,0.5144615 -1.16246,0.9353847 -1.44,0.9353847 -0.43456,0 -0.50461,0.5996748 -0.50461,4.3199998 v 4.319999 h 1.08629 c 1.32479,0 4.92639,1.080417 5.79826,1.739378 0.98918,0.747616 1.22664,0.622045 2.36001,-1.248008 l 1.05978,-1.74863 -0.66376,-0.843833 c -1.03248,-1.312585 -1.16056,-2.724945 -0.40252,-4.4386186 0.53363,-1.2063734 0.92956,-1.6058095 2.10871,-2.127404 1.85488,-0.8205002 3.35198,-0.5717466 4.80469,0.7983318 1.14486,1.0797417 1.67325,2.7699218 1.31374,4.2023138 -0.11288,0.449756 -0.694,1.350702 -1.29137,2.002104 -1.03988,1.133927 -1.17444,1.184125 -3.15967,1.178686 l -2.07354,-0.0057 -1.00005,1.671977 -1.00006,1.671977 1.61151,1.999856 c 1.7366,2.155102 2.76322,4.477516 3.13787,7.09849 l 0.23573,1.64906 1.35318,0.0982 1.35317,0.0982 0.76126,-1.721347 c 0.86315,-1.951742 1.96839,-2.961576 3.77329,-3.447584 2.3309,-0.627647 4.80365,0.377678 6.26586,2.547463 0.97016,1.43961 1.0007,4.097705 0.066,5.741494 -2.33105,4.099302 -8.39688,3.638576 -10.07882,-0.765532 -0.5406,-1.415531 -0.56271,-1.4309 -2.05842,-1.4309 h -1.51195 l -0.18044,1.523476 c -0.26308,2.221298 -1.32789,4.805445 -2.75121,6.676821 l -1.24757,1.640298 1.12523,1.125225 c 0.67618,0.676189 1.03064,1.278263 0.88822,1.508704 -0.1631,0.263917 -0.6272,0.0026 -1.48854,-0.838621 -1.07298,-1.047734 -1.33024,-1.164876 -1.80319,-0.82104 -0.30341,0.22058 -1.47897,0.855834 -2.61237,1.411671 -1.82401,0.894528 -2.4489,1.026233 -5.44,1.146553 -2.76864,0.111373 -3.71361,0.0224 -5.22947,-0.492352 l -1.85019,-0.628284 -1.14132,2.040873 c -0.62773,1.122483 -1.0495,2.21768 -0.93726,2.433776 0.11223,0.216093 0.41229,0.752899 0.66679,1.192899 1.96691,3.400515 -2.41375,7.217238 -5.86709,5.111798 z M 134.4913,37.893903 c 3.26339,-1.111949 5.48523,-4.462416 5.50004,-8.293904 0.012,-3.100502 -0.73225,-4.869314 -2.87138,-6.82436 -4.24483,-3.879532 -10.51683,-2.703843 -13.03618,2.426534 -0.74258,1.512173 -0.89695,2.254441 -0.89695,4.258498 0,2.061215 0.0861,2.652863 0.90353,4.243382 2.03401,3.957612 6.11432,5.650448 10.40094,4.18985 z M 0.32,29.439999 v -14.08 h 7.6219197 c 8.5658473,0 10.1154413,0.257267 12.1128243,2.010992 1.656058,1.454038 2.33014,3.13575 2.336444,5.829008 0.0029,1.232 -0.147537,2.790192 -0.334268,3.462649 -0.405732,1.461128 -2.171177,3.50821 -3.500375,4.058782 C 18.030445,30.939348 17.6,31.264537 17.6,31.444073 c 0,0.278229 4.188281,7.801948 6.143446,11.035925 l 0.628752,1.04 -3.306099,-0.01066 L 17.76,43.498686 15.2,38.983231 C 13.792,36.499704 12.243338,33.83446 11.758528,33.06044 l -0.881472,-1.407309 -2.478528,0.09343 -2.478528,0.09343 -0.087219,5.84 -0.087218,5.839999 H 3.0327812 0.32 Z m 16.026951,-3.770863 c 1.326999,-1.185673 1.4617,-2.998465 0.226427,-4.235042 C 15.751337,20.611185 15.570639,20.638 10.713612,20.537473 L 5.76,20.434948 v 3.062525 3.062526 h 4.794951 c 4.792936,0 4.795371,-3.84e-4 5.792,-0.890863 z M 26.24,43.293653 c 0,-0.137699 2.484,-6.477229 5.52,-14.087845 l 5.52,-13.837482 2.897658,-0.0042 2.897654,-0.0042 5.635261,14.091261 5.635261,14.09126 -3.047364,-0.09126 -3.047363,-0.09126 -0.799424,-2 -0.799427,-1.999999 h -6.498134 -6.498135 l -0.762899,1.999999 -0.762899,2 -2.945095,0.09201 C 27.565292,43.502613 26.24,43.431352 26.24,43.293653 Z M 44.338499,33.039999 C 42.603155,28.411868 40.444653,23.042627 40.32,23.044052 c -0.166893,0.0019 -4.16,9.908356 -4.16,10.320494 0,0.129498 1.887405,0.235453 4.194237,0.235453 3.861168,0 4.177561,-0.04447 3.984262,-0.56 z m 14.541501,-3.6 v -14.08 h 0.925222 c 0.805338,0 1.704477,0.892348 6.939303,6.886899 3.307747,3.787794 6.106688,6.847794 6.219875,6.8 0.113184,-0.04779 2.86559,-3.110899 6.116458,-6.806899 5.1235,-5.825045 6.047075,-6.733354 6.934905,-6.820274 L 87.04,15.31945 V 29.419724 43.519998 H 84.32 81.6 v -7.999999 c 0,-4.4 -0.122694,-8 -0.272653,-8 -0.149958,0 -2.03615,1.98 -4.191539,4.4 -2.155389,2.42 -4.020803,4.438704 -4.145366,4.486006 -0.124564,0.0473 -2.004618,-1.896697 -4.177901,-4.32 C 66.639258,29.662702 64.739366,27.631999 64.59056,27.573332 64.44175,27.514666 64.32,31.078665 64.32,35.493333 v 8.026665 H 61.6 58.88 Z m 42.1376,13.52955 c -3.540051,-1.455743 -6.56685,-3.597114 -8.355422,-7.325312 -1.11593,-2.326109 -1.162677,-2.626243 -1.162779,-6.192944 -1.03e-4,-3.474008 0.171788,-3.899773 1.054545,-5.970368 1.754399,-4.115118 4.762057,-6.248273 8.542556,-7.599943 2.34721,-0.839215 6.62353,-0.982008 8.90256,-0.187 2.39136,0.834192 6.23144,2.556457 6.19673,3.241386 -0.008,0.156597 -1.14016,1.242944 -2.06357,2.243103 l -1.67893,1.818472 -1.94749,-0.965267 c -5.55626,-2.753935 -11.525973,-0.548297 -13.030686,4.814463 -0.656759,2.340663 -0.516106,4.109484 0.519065,6.52778 1.866602,4.360617 7.545031,5.916105 12.565641,3.442102 l 1.91982,-0.946029 1.81381,1.985002 1.8138,1.985005 -0.69362,0.571385 c -1.11996,0.922586 -3.76947,2.211728 -5.49363,2.672982 -2.17608,1.058889 -6.69028,0.794852 -8.9024,-0.114817 z"
         style="fill:#365166;fill-opacity:1;stroke:#365166;stroke-width:0.20259789;stroke-opacity:1" />
    </g>
  </g>
</svg>
